<svg height='100px' width='100px'  fill="#000000" xmlns="http://www.w3.org/2000/svg" xmlns:xlink="http://www.w3.org/1999/xlink" version="1.1" x="0px" y="0px" viewBox="0 0 100 100" enable-background="new 0 0 100 100" xml:space="preserve"><g><path fill="#000000" d="M31.813,70.001H27v5h14.998l0,0v-10h-8.496C33.502,67.091,32.828,68.927,31.813,70.001z"></path><path fill="#000000" d="M61.998,85.001h20v-30h-20V85.001z M66.998,60.001h10v20h-10V60.001z"></path><polygon fill="#000000" points="46.998,40.001 46.998,75.001 56.998,75.001 56.998,70.001 51.998,70.001 51.998,45.001    86.998,45.001 86.998,50.001 86.998,55.001 86.998,70.001 86.998,75.001 91.998,75.001 91.998,40.001  "></polygon><polygon fill="#000000" points="12,19.999 66.998,19.999 66.998,35.001 71.998,35.001 71.998,14.999 7,14.999 7,60.001    41.998,60.001 41.998,50.001 12,50.001  "></polygon></g></svg>