<svg xmlns="http://www.w3.org/2000/svg" xmlns:xlink="http://www.w3.org/1999/xlink" version="1.1" x="0px" y="0px" viewBox="0 0 100 125" enable-background="new 0 0 100 100" xml:space="preserve"><g><g><path d="M73.163,71.416c-4.539,0-8.942-1.51-13.463-4.616c-3.586-2.465-6.822-5.646-9.701-8.534    c-6.325,6.322-13.554,13.15-24.209,13.15C13.684,71.416,4.896,62.409,4.896,50c0-5.645,2.21-10.974,6.224-15.006    c4.115-4.134,9.696-6.411,15.716-6.411c4.539,0,8.943,1.51,13.464,4.617c3.586,2.464,6.821,5.646,9.7,8.534    c6.325-6.322,13.555-13.151,24.209-13.151c5.92,0,11.271,2.162,15.066,6.088c3.757,3.887,5.827,9.331,5.827,15.328    c0,5.645-2.211,10.975-6.224,15.006C84.765,69.141,79.183,71.416,73.163,71.416z M50,53.316c0.525,0,1.049,0.2,1.449,0.6    c0.305,0.306,0.612,0.614,0.922,0.926c5.825,5.849,12.428,12.478,20.792,12.478c10.005,0,17.843-7.607,17.843-17.319    c0-10.197-6.907-17.319-16.796-17.319c-9.386,0-15.834,6.461-22.069,12.709l-0.691,0.693c-0.801,0.8-2.098,0.8-2.898,0    c-0.305-0.305-0.612-0.613-0.922-0.924c-5.825-5.849-12.428-12.479-20.792-12.479C16.832,32.681,8.994,40.288,8.994,50    c0,10.197,6.907,17.319,16.796,17.319c9.385,0,15.834-6.462,22.07-12.711l0.691-0.691C48.951,53.517,49.475,53.316,50,53.316z     M73.294,63.564c-7.143,0-12.31-5.084-16.869-9.57c-0.894-0.881-1.738-1.712-2.58-2.488c-0.406-0.376-0.644-0.898-0.657-1.451    c-0.016-0.553,0.193-1.089,0.58-1.484l0.428-0.44c5.071-5.211,11.38-11.695,19.491-11.695c3.665,0,7.018,1.378,9.438,3.88    c2.407,2.487,3.733,5.927,3.733,9.685C86.858,57.479,80.773,63.564,73.294,63.564z M58.149,49.945    c0.386,0.376,0.771,0.755,1.15,1.127c4.193,4.128,8.53,8.395,13.994,8.395c5.221,0,9.467-4.247,9.467-9.467    c0-5.485-3.815-9.467-9.074-9.467C67.755,40.533,62.667,45.333,58.149,49.945z M26.313,63.564c-3.665,0-7.017-1.377-9.438-3.879    c-2.407-2.487-3.733-5.927-3.733-9.686c0-7.48,6.085-13.565,13.564-13.565c7.143,0,12.31,5.085,16.869,9.572    c0.894,0.879,1.739,1.711,2.58,2.487c0.406,0.375,0.644,0.899,0.659,1.451s-0.195,1.088-0.581,1.484l-0.43,0.441    C40.733,57.081,34.423,63.564,26.313,63.564z M26.706,40.533c-5.22,0-9.467,4.247-9.467,9.467c0,5.485,3.816,9.467,9.074,9.467    c5.932,0,11.02-4.8,15.538-9.412c-0.386-0.376-0.771-0.754-1.15-1.128C36.507,44.8,32.171,40.533,26.706,40.533z"/></g></g><text x="0" y="115" fill="#000000" font-size="5px" font-weight="bold" font-family="'Helvetica Neue', Helvetica, Arial-Unicode, Arial, Sans-serif">Created by Gimzy7</text><text x="0" y="120" fill="#000000" font-size="5px" font-weight="bold" font-family="'Helvetica Neue', Helvetica, Arial-Unicode, Arial, Sans-serif">from the Noun Project</text></svg>