<svg xmlns="http://www.w3.org/2000/svg" xmlns:xlink="http://www.w3.org/1999/xlink" version="1.1" x="0px" y="0px" viewBox="0 0 24 30" style="enable-background:new 0 0 24 24;" xml:space="preserve"><g><path d="M22.804,2.518h-1.442h-0.819h-0.044h-0.1h-0.796h-0.145h-0.002H2.64H1.196c-0.641,0-1.162,0.521-1.162,1.162v12.451v0.05   v0.329v0.05v1.112c0,0.85,0.691,1.541,1.541,1.541h5.818v1.47H5.534c-0.221,0-0.4,0.179-0.4,0.4s0.18,0.4,0.4,0.4h12.998   c0.221,0,0.4-0.179,0.4-0.4s-0.18-0.4-0.4-0.4h-1.926v-1.47h5.818c0.85,0,1.541-0.691,1.541-1.541v-1.112v-0.05V16.18v-0.05V3.68   C23.966,3.039,23.444,2.518,22.804,2.518z M8.269,19.212h7.463v1.47H8.269V19.212z M22.425,18.405H1.575   c-0.404,0-0.732-0.329-0.732-0.733v-0.733h22.314v0.733C23.157,18.075,22.829,18.405,22.425,18.405z M23.157,16.131H22.45V4.457   c0-0.233-0.19-0.423-0.424-0.423h-0.665h-0.816h-1.089H2.64H1.974c-0.233,0-0.424,0.19-0.424,0.423v11.673H0.843V3.68   c0-0.195,0.158-0.354,0.354-0.354h1.418H2.64h16.811c0.003,0,0.004,0.002,0.007,0.002h0.145c0.004,0,0.008-0.002,0.012-0.002h0.772   c0.004,0,0.008,0.002,0.012,0.002h0.144c0.005,0,0.01-0.002,0.016-0.002h0.804h0.025h1.417c0.195,0,0.354,0.159,0.354,0.354V16.131   z M2.359,4.842h0.28h16.816h1.089h0.816h0.28v11.289H2.359V4.842z"/><path d="M7.231,14.812H3.296c-0.221,0-0.4,0.179-0.4,0.4s0.18,0.4,0.4,0.4h3.936c0.221,0,0.4-0.179,0.4-0.4   S7.452,14.812,7.231,14.812z"/><path d="M3.296,14.223h2.936c0.221,0,0.4-0.179,0.4-0.4s-0.18-0.4-0.4-0.4H3.296c-0.221,0-0.4,0.179-0.4,0.4   S3.075,14.223,3.296,14.223z"/><path d="M20.771,14.812h-3.936c-0.221,0-0.4,0.179-0.4,0.4s0.18,0.4,0.4,0.4h3.936c0.221,0,0.4-0.179,0.4-0.4   S20.991,14.812,20.771,14.812z"/><path d="M20.771,13.424h-2.936c-0.221,0-0.4,0.179-0.4,0.4s0.18,0.4,0.4,0.4h2.936c0.221,0,0.4-0.179,0.4-0.4   S20.991,13.424,20.771,13.424z"/><path d="M18.084,9.835c0-0.122-0.056-0.236-0.15-0.312L14.39,6.687c-0.173-0.138-0.424-0.109-0.562,0.062   c-0.138,0.172-0.11,0.424,0.062,0.562l3.153,2.523l-3.153,2.523c-0.173,0.138-0.2,0.39-0.062,0.562   c0.079,0.099,0.195,0.15,0.312,0.15c0.088,0,0.176-0.028,0.25-0.087l3.544-2.835C18.028,10.072,18.084,9.957,18.084,9.835z"/><path d="M10.174,6.75c-0.14-0.172-0.391-0.201-0.562-0.062L6.066,9.523c-0.095,0.076-0.15,0.191-0.15,0.312s0.056,0.236,0.15,0.312   l3.545,2.835c0.074,0.059,0.162,0.087,0.25,0.087c0.117,0,0.233-0.051,0.312-0.15c0.138-0.173,0.11-0.424-0.062-0.562L6.957,9.835   l3.154-2.523C10.284,7.174,10.312,6.923,10.174,6.75z"/><path d="M13.263,6.091c-0.21-0.072-0.438,0.04-0.508,0.25l-2.292,6.724c-0.071,0.209,0.041,0.436,0.25,0.507   c0.043,0.015,0.086,0.021,0.129,0.021c0.166,0,0.322-0.104,0.379-0.271l2.292-6.724C13.584,6.389,13.472,6.162,13.263,6.091z"/></g><text x="0" y="39" fill="#000000" font-size="5px" font-weight="bold" font-family="'Helvetica Neue', Helvetica, Arial-Unicode, Arial, Sans-serif">Created by Atif Arshad</text><text x="0" y="44" fill="#000000" font-size="5px" font-weight="bold" font-family="'Helvetica Neue', Helvetica, Arial-Unicode, Arial, Sans-serif">from the Noun Project</text></svg>